<svg id="visual" viewBox="0 0 720 1280" width="720" height="1280" xmlns="http://www.w3.org/2000/svg" xmlns:xlink="http://www.w3.org/1999/xlink" version="1.1"><g stroke-width="1" stroke-linejoin="bevel"><path d="M332.6 679.2L426.4 688.2L415.4 616.8Z" fill="#277297" stroke="#277297"></path><path d="M415.4 616.8L288.6 594.8L332.6 679.2Z" fill="#081a28" stroke="#081a28"></path><path d="M328.6 814.7L381.4 793.7L332.6 679.2Z" fill="#00101c" stroke="#00101c"></path><path d="M332.6 679.2L381.4 793.7L426.4 688.2Z" fill="#0c2435" stroke="#0c2435"></path><path d="M381.4 793.7L514.3 716.2L426.4 688.2Z" fill="#15384f" stroke="#15384f"></path><path d="M426.4 688.2L531.3 605.8L415.4 616.8Z" fill="#277297" stroke="#277297"></path><path d="M415.4 616.8L308.6 521.3L288.6 594.8Z" fill="#00101c" stroke="#00101c"></path><path d="M514.3 716.2L531.3 605.8L426.4 688.2Z" fill="#00101c" stroke="#00101c"></path><path d="M415.4 616.8L392.4 490.3L308.6 521.3Z" fill="#205a7a" stroke="#205a7a"></path><path d="M219.7 608.8L231.7 714.2L288.6 594.8Z" fill="#0c2435" stroke="#0c2435"></path><path d="M288.6 594.8L231.7 714.2L332.6 679.2Z" fill="#205a7a" stroke="#205a7a"></path><path d="M231.7 714.2L328.6 814.7L332.6 679.2Z" fill="#277297" stroke="#277297"></path><path d="M501.3 469.3L392.4 490.3L415.4 616.8Z" fill="#19435d" stroke="#19435d"></path><path d="M203.7 500.3L219.7 608.8L288.6 594.8Z" fill="#205a7a" stroke="#205a7a"></path><path d="M381.4 793.7L529.3 770.7L514.3 716.2Z" fill="#15384f" stroke="#15384f"></path><path d="M514.3 716.2L589.1 665.2L531.3 605.8Z" fill="#205a7a" stroke="#205a7a"></path><path d="M513.3 892.2L529.3 770.7L381.4 793.7Z" fill="#112e42" stroke="#112e42"></path><path d="M607.1 769.7L589.1 665.2L514.3 716.2Z" fill="#081a28" stroke="#081a28"></path><path d="M589.1 665.2L599.1 614.8L531.3 605.8Z" fill="#246688" stroke="#246688"></path><path d="M531.3 605.8L501.3 469.3L415.4 616.8Z" fill="#0c2435" stroke="#0c2435"></path><path d="M613.1 497.3L501.3 469.3L531.3 605.8Z" fill="#246688" stroke="#246688"></path><path d="M285.6 364.8L203.7 500.3L308.6 521.3Z" fill="#081a28" stroke="#081a28"></path><path d="M308.6 521.3L203.7 500.3L288.6 594.8Z" fill="#00101c" stroke="#00101c"></path><path d="M181.7 806.7L232.7 856.2L231.7 714.2Z" fill="#0c2435" stroke="#0c2435"></path><path d="M381.4 379.8L308.6 521.3L392.4 490.3Z" fill="#081a28" stroke="#081a28"></path><path d="M232.7 856.2L335.6 898.2L328.6 814.7Z" fill="#00101c" stroke="#00101c"></path><path d="M328.6 814.7L335.6 898.2L381.4 793.7Z" fill="#081a28" stroke="#081a28"></path><path d="M181.7 806.7L231.7 714.2L110.9 794.7Z" fill="#205a7a" stroke="#205a7a"></path><path d="M231.7 714.2L232.7 856.2L328.6 814.7Z" fill="#297ea6" stroke="#297ea6"></path><path d="M110.9 794.7L231.7 714.2L81.9 716.2Z" fill="#246688" stroke="#246688"></path><path d="M606.1 895.2L607.1 769.7L529.3 770.7Z" fill="#00101c" stroke="#00101c"></path><path d="M529.3 770.7L607.1 769.7L514.3 716.2Z" fill="#277297" stroke="#277297"></path><path d="M589.1 665.2L720 696.2L599.1 614.8Z" fill="#19435d" stroke="#19435d"></path><path d="M335.6 898.2L439.4 912.2L381.4 793.7Z" fill="#0c2435" stroke="#0c2435"></path><path d="M439.4 912.2L513.3 892.2L381.4 793.7Z" fill="#277297" stroke="#277297"></path><path d="M501.3 469.3L381.4 379.8L392.4 490.3Z" fill="#15384f" stroke="#15384f"></path><path d="M720 562.8L613.1 497.3L599.1 614.8Z" fill="#297ea6" stroke="#297ea6"></path><path d="M599.1 614.8L613.1 497.3L531.3 605.8Z" fill="#246688" stroke="#246688"></path><path d="M501.3 469.3L525.3 380.8L381.4 379.8Z" fill="#297ea6" stroke="#297ea6"></path><path d="M81.9 716.2L231.7 714.2L219.7 608.8Z" fill="#112e42" stroke="#112e42"></path><path d="M181.7 806.7L86.9 892.2L232.7 856.2Z" fill="#00101c" stroke="#00101c"></path><path d="M75.9 563.8L81.9 716.2L219.7 608.8Z" fill="#1d4e6b" stroke="#1d4e6b"></path><path d="M178.7 414.8L112.9 508.3L203.7 500.3Z" fill="#00101c" stroke="#00101c"></path><path d="M203.7 500.3L112.9 508.3L219.7 608.8Z" fill="#00101c" stroke="#00101c"></path><path d="M381.4 379.8L285.6 364.8L308.6 521.3Z" fill="#00101c" stroke="#00101c"></path><path d="M279.6 975.6L410.4 968.6L335.6 898.2Z" fill="#277297" stroke="#277297"></path><path d="M335.6 898.2L410.4 968.6L439.4 912.2Z" fill="#297ea6" stroke="#297ea6"></path><path d="M439.4 912.2L488.3 987.6L513.3 892.2Z" fill="#205a7a" stroke="#205a7a"></path><path d="M279.6 975.6L335.6 898.2L232.7 856.2Z" fill="#15384f" stroke="#15384f"></path><path d="M613.1 497.3L525.3 380.8L501.3 469.3Z" fill="#277297" stroke="#277297"></path><path d="M381.4 379.8L398.4 295.4L285.6 364.8Z" fill="#081a28" stroke="#081a28"></path><path d="M285.6 364.8L178.7 414.8L203.7 500.3Z" fill="#19435d" stroke="#19435d"></path><path d="M112.9 508.3L75.9 563.8L219.7 608.8Z" fill="#15384f" stroke="#15384f"></path><path d="M513.3 892.2L606.1 895.2L529.3 770.7Z" fill="#205a7a" stroke="#205a7a"></path><path d="M607.1 769.7L720 696.2L589.1 665.2Z" fill="#205a7a" stroke="#205a7a"></path><path d="M613.1 1007.6L606.1 895.2L513.3 892.2Z" fill="#00101c" stroke="#00101c"></path><path d="M179.7 980.6L279.6 975.6L232.7 856.2Z" fill="#297ea6" stroke="#297ea6"></path><path d="M720 773.7L720 696.2L607.1 769.7Z" fill="#15384f" stroke="#15384f"></path><path d="M390.4 1078.1L488.3 987.6L410.4 968.6Z" fill="#112e42" stroke="#112e42"></path><path d="M410.4 968.6L488.3 987.6L439.4 912.2Z" fill="#1d4e6b" stroke="#1d4e6b"></path><path d="M720 696.2L720 562.8L599.1 614.8Z" fill="#0c2435" stroke="#0c2435"></path><path d="M613.1 497.3L638.1 396.8L525.3 380.8Z" fill="#081a28" stroke="#081a28"></path><path d="M720 866.2L720 773.7L607.1 769.7Z" fill="#19435d" stroke="#19435d"></path><path d="M525.3 380.8L398.4 295.4L381.4 379.8Z" fill="#205a7a" stroke="#205a7a"></path><path d="M97.9 273.4L93.9 418.8L178.7 414.8Z" fill="#1d4e6b" stroke="#1d4e6b"></path><path d="M720 503.3L638.1 396.8L613.1 497.3Z" fill="#00101c" stroke="#00101c"></path><path d="M525.3 380.8L540.3 282.4L398.4 295.4Z" fill="#277297" stroke="#277297"></path><path d="M720 562.8L720 503.3L613.1 497.3Z" fill="#0c2435" stroke="#0c2435"></path><path d="M222.7 289.4L178.7 414.8L285.6 364.8Z" fill="#205a7a" stroke="#205a7a"></path><path d="M178.7 414.8L93.9 418.8L112.9 508.3Z" fill="#1d4e6b" stroke="#1d4e6b"></path><path d="M112.9 508.3L0 479.3L75.9 563.8Z" fill="#277297" stroke="#277297"></path><path d="M0 876.2L86.9 892.2L110.9 794.7Z" fill="#15384f" stroke="#15384f"></path><path d="M110.9 794.7L86.9 892.2L181.7 806.7Z" fill="#081a28" stroke="#081a28"></path><path d="M0 787.7L110.9 794.7L81.9 716.2Z" fill="#19435d" stroke="#19435d"></path><path d="M86.9 892.2L179.7 980.6L232.7 856.2Z" fill="#00101c" stroke="#00101c"></path><path d="M279.6 975.6L390.4 1078.1L410.4 968.6Z" fill="#1d4e6b" stroke="#1d4e6b"></path><path d="M0 589.8L0 673.2L75.9 563.8Z" fill="#297ea6" stroke="#297ea6"></path><path d="M75.9 563.8L0 673.2L81.9 716.2Z" fill="#205a7a" stroke="#205a7a"></path><path d="M0 479.3L0 589.8L75.9 563.8Z" fill="#205a7a" stroke="#205a7a"></path><path d="M398.4 295.4L295.6 273.4L285.6 364.8Z" fill="#1d4e6b" stroke="#1d4e6b"></path><path d="M720 1013.6L720 866.2L606.1 895.2Z" fill="#00101c" stroke="#00101c"></path><path d="M606.1 895.2L720 866.2L607.1 769.7Z" fill="#081a28" stroke="#081a28"></path><path d="M295.6 273.4L222.7 289.4L285.6 364.8Z" fill="#297ea6" stroke="#297ea6"></path><path d="M0 673.2L0 787.7L81.9 716.2Z" fill="#112e42" stroke="#112e42"></path><path d="M614.1 276.4L540.3 282.4L525.3 380.8Z" fill="#1d4e6b" stroke="#1d4e6b"></path><path d="M398.4 295.4L315.6 169.9L295.6 273.4Z" fill="#00101c" stroke="#00101c"></path><path d="M521.3 1080.1L613.1 1007.6L488.3 987.6Z" fill="#00101c" stroke="#00101c"></path><path d="M488.3 987.6L613.1 1007.6L513.3 892.2Z" fill="#15384f" stroke="#15384f"></path><path d="M331.6 1099.1L390.4 1078.1L279.6 975.6Z" fill="#19435d" stroke="#19435d"></path><path d="M93.9 418.8L0 479.3L112.9 508.3Z" fill="#205a7a" stroke="#205a7a"></path><path d="M0 419.8L0 479.3L93.9 418.8Z" fill="#205a7a" stroke="#205a7a"></path><path d="M0 787.7L0 876.2L110.9 794.7Z" fill="#15384f" stroke="#15384f"></path><path d="M86.9 892.2L82.9 998.6L179.7 980.6Z" fill="#277297" stroke="#277297"></path><path d="M101.9 1083.1L206.7 1065.1L179.7 980.6Z" fill="#205a7a" stroke="#205a7a"></path><path d="M179.7 980.6L206.7 1065.1L279.6 975.6Z" fill="#246688" stroke="#246688"></path><path d="M206.7 1065.1L331.6 1099.1L279.6 975.6Z" fill="#0c2435" stroke="#0c2435"></path><path d="M390.4 1078.1L521.3 1080.1L488.3 987.6Z" fill="#297ea6" stroke="#297ea6"></path><path d="M490.3 1201.5L521.3 1080.1L390.4 1078.1Z" fill="#205a7a" stroke="#205a7a"></path><path d="M720 503.3L720 367.8L638.1 396.8Z" fill="#277297" stroke="#277297"></path><path d="M638.1 396.8L614.1 276.4L525.3 380.8Z" fill="#19435d" stroke="#19435d"></path><path d="M720 367.8L614.1 276.4L638.1 396.8Z" fill="#277297" stroke="#277297"></path><path d="M540.3 282.4L434.4 181.9L398.4 295.4Z" fill="#1d4e6b" stroke="#1d4e6b"></path><path d="M0 289.4L0 419.8L93.9 418.8Z" fill="#112e42" stroke="#112e42"></path><path d="M0 991.6L82.9 998.6L86.9 892.2Z" fill="#19435d" stroke="#19435d"></path><path d="M120.9 193.9L97.9 273.4L222.7 289.4Z" fill="#081a28" stroke="#081a28"></path><path d="M222.7 289.4L97.9 273.4L178.7 414.8Z" fill="#081a28" stroke="#081a28"></path><path d="M540.3 186.9L434.4 181.9L540.3 282.4Z" fill="#15384f" stroke="#15384f"></path><path d="M295.6 273.4L201.7 167.9L222.7 289.4Z" fill="#112e42" stroke="#112e42"></path><path d="M613.1 1007.6L720 1013.6L606.1 895.2Z" fill="#246688" stroke="#246688"></path><path d="M720 1104.1L720 1013.6L613.1 1007.6Z" fill="#1d4e6b" stroke="#1d4e6b"></path><path d="M434.4 181.9L315.6 169.9L398.4 295.4Z" fill="#246688" stroke="#246688"></path><path d="M603.1 205.9L540.3 186.9L540.3 282.4Z" fill="#246688" stroke="#246688"></path><path d="M434.4 181.9L403.4 107.5L315.6 169.9Z" fill="#297ea6" stroke="#297ea6"></path><path d="M603.1 205.9L540.3 282.4L614.1 276.4Z" fill="#112e42" stroke="#112e42"></path><path d="M587.1 1163.5L601.1 1105.1L521.3 1080.1Z" fill="#297ea6" stroke="#297ea6"></path><path d="M521.3 1080.1L601.1 1105.1L613.1 1007.6Z" fill="#246688" stroke="#246688"></path><path d="M720 216.9L603.1 205.9L614.1 276.4Z" fill="#112e42" stroke="#112e42"></path><path d="M0 876.2L0 991.6L86.9 892.2Z" fill="#0c2435" stroke="#0c2435"></path><path d="M82.9 998.6L101.9 1083.1L179.7 980.6Z" fill="#0c2435" stroke="#0c2435"></path><path d="M720 367.8L720 280.4L614.1 276.4Z" fill="#277297" stroke="#277297"></path><path d="M0 1103.1L101.9 1083.1L82.9 998.6Z" fill="#1d4e6b" stroke="#1d4e6b"></path><path d="M206.7 1065.1L284.6 1179.5L331.6 1099.1Z" fill="#205a7a" stroke="#205a7a"></path><path d="M315.6 169.9L201.7 167.9L295.6 273.4Z" fill="#081a28" stroke="#081a28"></path><path d="M175.7 1188.5L284.6 1179.5L206.7 1065.1Z" fill="#15384f" stroke="#15384f"></path><path d="M331.6 1099.1L385.4 1194.5L390.4 1078.1Z" fill="#205a7a" stroke="#205a7a"></path><path d="M0 181.9L0 289.4L97.9 273.4Z" fill="#15384f" stroke="#15384f"></path><path d="M97.9 273.4L0 289.4L93.9 418.8Z" fill="#19435d" stroke="#19435d"></path><path d="M201.7 167.9L120.9 193.9L222.7 289.4Z" fill="#246688" stroke="#246688"></path><path d="M284.6 1179.5L385.4 1194.5L331.6 1099.1Z" fill="#19435d" stroke="#19435d"></path><path d="M490.3 1201.5L587.1 1163.5L521.3 1080.1Z" fill="#00101c" stroke="#00101c"></path><path d="M601.1 1105.1L720 1104.1L613.1 1007.6Z" fill="#00101c" stroke="#00101c"></path><path d="M315.6 169.9L230.7 80.5L201.7 167.9Z" fill="#15384f" stroke="#15384f"></path><path d="M507.3 115.5L403.4 107.5L434.4 181.9Z" fill="#205a7a" stroke="#205a7a"></path><path d="M507.3 115.5L434.4 181.9L540.3 186.9Z" fill="#246688" stroke="#246688"></path><path d="M385.4 1194.5L490.3 1201.5L390.4 1078.1Z" fill="#205a7a" stroke="#205a7a"></path><path d="M720 280.4L720 216.9L614.1 276.4Z" fill="#246688" stroke="#246688"></path><path d="M591.1 92.5L507.3 115.5L540.3 186.9Z" fill="#19435d" stroke="#19435d"></path><path d="M591.1 92.5L540.3 186.9L603.1 205.9Z" fill="#0c2435" stroke="#0c2435"></path><path d="M720 1182.5L720 1104.1L601.1 1105.1Z" fill="#277297" stroke="#277297"></path><path d="M95.9 1206.5L175.7 1188.5L101.9 1083.1Z" fill="#246688" stroke="#246688"></path><path d="M101.9 1083.1L175.7 1188.5L206.7 1065.1Z" fill="#205a7a" stroke="#205a7a"></path><path d="M336.6 1280L395.4 1280L385.4 1194.5Z" fill="#277297" stroke="#277297"></path><path d="M385.4 1194.5L395.4 1280L490.3 1201.5Z" fill="#297ea6" stroke="#297ea6"></path><path d="M333.6 0L316.6 81.5L403.4 107.5Z" fill="#297ea6" stroke="#297ea6"></path><path d="M403.4 107.5L316.6 81.5L315.6 169.9Z" fill="#1d4e6b" stroke="#1d4e6b"></path><path d="M201.7 167.9L104.9 101.5L120.9 193.9Z" fill="#081a28" stroke="#081a28"></path><path d="M0 991.6L0 1103.1L82.9 998.6Z" fill="#0c2435" stroke="#0c2435"></path><path d="M316.6 81.5L230.7 80.5L315.6 169.9Z" fill="#205a7a" stroke="#205a7a"></path><path d="M120.9 193.9L0 181.9L97.9 273.4Z" fill="#246688" stroke="#246688"></path><path d="M720 121.5L591.1 92.5L603.1 205.9Z" fill="#112e42" stroke="#112e42"></path><path d="M507.3 115.5L425.4 0L403.4 107.5Z" fill="#0c2435" stroke="#0c2435"></path><path d="M104.9 101.5L0 181.9L120.9 193.9Z" fill="#297ea6" stroke="#297ea6"></path><path d="M0 1103.1L95.9 1206.5L101.9 1083.1Z" fill="#081a28" stroke="#081a28"></path><path d="M336.6 1280L385.4 1194.5L284.6 1179.5Z" fill="#19435d" stroke="#19435d"></path><path d="M336.6 1280L284.6 1179.5L187.7 1280Z" fill="#081a28" stroke="#081a28"></path><path d="M637.1 1280L720 1182.5L587.1 1163.5Z" fill="#081a28" stroke="#081a28"></path><path d="M587.1 1163.5L720 1182.5L601.1 1105.1Z" fill="#277297" stroke="#277297"></path><path d="M230.7 80.5L104.9 101.5L201.7 167.9Z" fill="#277297" stroke="#277297"></path><path d="M187.7 1280L284.6 1179.5L175.7 1188.5Z" fill="#19435d" stroke="#19435d"></path><path d="M497.3 1280L587.1 1163.5L490.3 1201.5Z" fill="#112e42" stroke="#112e42"></path><path d="M395.4 1280L497.3 1280L490.3 1201.5Z" fill="#112e42" stroke="#112e42"></path><path d="M720 216.9L720 121.5L603.1 205.9Z" fill="#00101c" stroke="#00101c"></path><path d="M95.9 1206.5L187.7 1280L175.7 1188.5Z" fill="#081a28" stroke="#081a28"></path><path d="M0 1103.1L0 1187.5L95.9 1206.5Z" fill="#19435d" stroke="#19435d"></path><path d="M95.9 1206.5L98.9 1280L187.7 1280Z" fill="#246688" stroke="#246688"></path><path d="M316.6 81.5L333.6 0L230.7 80.5Z" fill="#19435d" stroke="#19435d"></path><path d="M230.7 80.5L187.7 0L104.9 101.5Z" fill="#112e42" stroke="#112e42"></path><path d="M498.3 0L425.4 0L507.3 115.5Z" fill="#15384f" stroke="#15384f"></path><path d="M498.3 0L507.3 115.5L591.1 92.5Z" fill="#1d4e6b" stroke="#1d4e6b"></path><path d="M425.4 0L333.6 0L403.4 107.5Z" fill="#112e42" stroke="#112e42"></path><path d="M641.1 0L498.3 0L591.1 92.5Z" fill="#081a28" stroke="#081a28"></path><path d="M0 0L0 107.5L104.9 101.5Z" fill="#112e42" stroke="#112e42"></path><path d="M104.9 101.5L0 107.5L0 181.9Z" fill="#205a7a" stroke="#205a7a"></path><path d="M497.3 1280L637.1 1280L587.1 1163.5Z" fill="#205a7a" stroke="#205a7a"></path><path d="M0 1280L98.9 1280L95.9 1206.5Z" fill="#081a28" stroke="#081a28"></path><path d="M333.6 0L187.7 0L230.7 80.5Z" fill="#112e42" stroke="#112e42"></path><path d="M637.1 1280L720 1280L720 1182.5Z" fill="#00101c" stroke="#00101c"></path><path d="M720 121.5L641.1 0L591.1 92.5Z" fill="#1d4e6b" stroke="#1d4e6b"></path><path d="M187.7 0L112.9 0L104.9 101.5Z" fill="#112e42" stroke="#112e42"></path><path d="M0 1187.5L0 1280L95.9 1206.5Z" fill="#00101c" stroke="#00101c"></path><path d="M720 121.5L720 0L641.1 0Z" fill="#15384f" stroke="#15384f"></path><path d="M112.9 0L0 0L104.9 101.5Z" fill="#246688" stroke="#246688"></path></g></svg>