<svg xmlns="http://www.w3.org/2000/svg" viewBox="0 0 484.26 100"><title>Asset 1</title><g id="Layer_2" data-name="Layer 2"><g id="Layer_1-2" data-name="Layer 1"><path d="M289.59,50.14a65,65,0,0,1-6.83,29.16,3.86,3.86,0,0,1-6.91-3.43,57.15,57.15,0,0,0,6-25.73,34.58,34.58,0,0,1,13-27.1,3.86,3.86,0,1,1,4.82,6A26.9,26.9,0,0,0,289.59,50.14Zm27-3.85a3.85,3.85,0,0,0-3.86,3.85,88.78,88.78,0,0,1-11.08,43,3.86,3.86,0,1,0,6.75,3.75h0a96.52,96.52,0,0,0,12-46.7A3.85,3.85,0,0,0,316.59,46.29Zm0-15.43A19.31,19.31,0,0,0,297.3,50.14a3.86,3.86,0,1,0,7.71,0,11.58,11.58,0,0,1,23.15,0,103.24,103.24,0,0,1-9.89,44.36,3.86,3.86,0,0,0,7,3.29,111,111,0,0,0,10.62-47.65A19.3,19.3,0,0,0,316.59,30.86Zm0-30.86a50.2,50.2,0,0,0-50.15,50.14A42.38,42.38,0,0,1,264,64.29a3.86,3.86,0,1,0,7.27,2.57,50.1,50.1,0,0,0,2.86-16.72,42.43,42.43,0,1,1,84.85,0,135.35,135.35,0,0,1-2.55,26.26A3.86,3.86,0,0,0,364,77.9h0a143.58,143.58,0,0,0,2.7-27.75A50.19,50.19,0,0,0,316.59,0ZM300.38,61.79a3.87,3.87,0,0,0-4.55,3,72.53,72.53,0,0,1-8.29,21.91,3.86,3.86,0,1,0,6.68,3.86h0a80.14,80.14,0,0,0,9.17-24.23A3.85,3.85,0,0,0,300.38,61.79Zm16.21-46.36a35,35,0,0,0-4.34.27,3.86,3.86,0,1,0,1,7.65,27,27,0,0,1,30.37,26.79,118.58,118.58,0,0,1-.92,15,3.86,3.86,0,1,0,7.65,1,128.23,128.23,0,0,0,1-15.91A34.75,34.75,0,0,0,316.59,15.43Zm27.93,61.83a3.86,3.86,0,0,0-4.7,2.77h0c-.71,2.74-1.52,5.49-2.42,8.17a3.85,3.85,0,0,0,7.31,2.45h0c1-2.85,1.83-5.78,2.58-8.7a3.87,3.87,0,0,0-2.77-4.7Z"/><text transform="translate(3.38 77.51)" font-size="67.92" font-family="ArialRoundedMTBold, Arial Rounded MT Bold"><tspan letter-spacing="-0.01em">F</tspan><tspan x="40.13" y="0">lutter</tspan></text><text transform="translate(376.53 80.74)" font-size="67.92" font-family="ArialRoundedMTBold, Arial Rounded MT Bold">uth</text></g></g></svg>