<svg xmlns="http://www.w3.org/2000/svg" viewBox="0 0 500 500"><g id="freepik--background-simple--inject-6"><path d="M405.87,121.76c24.5,48.82,16.75,110.45-13.88,155.69S310.42,352,256.84,362.63c-38.24,7.62-79.39,6.07-114.33-11.24S80.09,299.27,78,260.33C77.2,245.62,80.32,230,90.13,219c15.67-17.53,42.43-18.15,65.94-17.43s50.24.18,66-17.29c12.1-13.42,13.88-32.89,20.26-49.8,10.84-28.75,37-51.2,67.06-57.55A88.75,88.75,0,0,1,322,75.23c33.06-2.06,64.42,15,81.77,43.18Z" style="fill:#ebebeb"></path></g><g id="freepik--Floor--inject-6"><path d="M478.44,428.37c0,.14-101.34.26-226.32.26s-226.35-.12-226.35-.26,101.32-.26,226.35-.26S478.44,428.22,478.44,428.37Z" style="fill:#263238"></path></g><g id="freepik--Device--inject-6"><rect x="156.18" y="138.42" width="187.64" height="289.62" rx="11.55" style="fill:#455a64"></rect><path d="M255.75,414.57a7.22,7.22,0,1,1-7.2-7.74A7.49,7.49,0,0,1,255.75,414.57Z" style="fill:#263238"></path><rect x="221.74" y="146.76" width="56.51" height="3.2" rx="1.22" style="fill:#263238"></rect><rect x="162.58" y="155.04" width="175.8" height="244.35" style="fill:#263238"></rect><path d="M292.74,374.17l.65-.06a13.39,13.39,0,0,0,1.88-.25,12.62,12.62,0,0,0,2.9-1,12.14,12.14,0,0,0,3.41-2.4,12.39,12.39,0,0,0,2.86-4.36,13.49,13.49,0,0,0,.81-6.12A12.54,12.54,0,0,0,296.13,349a14.16,14.16,0,0,0-2.08-.4c-.72,0-1.44-.08-2.19-.07H287.3l-9.67,0-21.35,0-48.91,0a12.76,12.76,0,0,0-6.06,1.58A12.48,12.48,0,0,0,195,360.28a13.32,13.32,0,0,0,.91,6,12.83,12.83,0,0,0,3.49,4.76,12.54,12.54,0,0,0,5.18,2.59,24.55,24.55,0,0,0,5.75.35H216l39.95.06,26.93.08,7.32.05,1.9,0,.65,0-.65,0-1.9,0-7.32,0-26.93.08-39.95.06h-8.61c-.49,0-1,0-1.49-.09a14.58,14.58,0,0,1-1.47-.26,13,13,0,0,1-5.39-2.69,13.37,13.37,0,0,1-3.64-4.95,13.83,13.83,0,0,1-.95-6.18,12.61,12.61,0,0,1,1.95-6,12.89,12.89,0,0,1,4.66-4.44,13.23,13.23,0,0,1,6.32-1.65l48.91,0,21.35,0h14.23c.74,0,1.49,0,2.23.07a15,15,0,0,1,2.14.43A12.86,12.86,0,0,1,305.54,360a13.69,13.69,0,0,1-.87,6.23,12.61,12.61,0,0,1-2.94,4.41,12.28,12.28,0,0,1-3.49,2.4,12.81,12.81,0,0,1-2.95,1,11.91,11.91,0,0,1-1.9.19C293,374.18,292.74,374.17,292.74,374.17Z" style="fill:#fff"></path><path d="M227.93,359.58l-.62.78a2.43,2.43,0,0,0-1.75-.8,2.22,2.22,0,1,0,0,4.43,2.57,2.57,0,0,0,1.75-.74l.63.7a3.58,3.58,0,0,1-2.44,1,3.19,3.19,0,1,1,0-6.37A3.48,3.48,0,0,1,227.93,359.58Z" style="fill:#fff"></path><path d="M235,361.79a3.34,3.34,0,1,1-3.34-3.18A3.22,3.22,0,0,1,235,361.79Zm-5.6,0a2.26,2.26,0,0,0,2.27,2.24,2.24,2.24,0,1,0-2.27-2.24Z" style="fill:#fff"></path><path d="M240.6,364.94l-3.36-4.52v4.52h-1.06v-6.3h1l3.38,4.53v-4.53h1v6.3Z" style="fill:#fff"></path><path d="M244.37,359.59v1.82h2.86v.95h-2.86v2.58H243.3v-6.3h4.24v.95Z" style="fill:#fff"></path><path d="M248.48,364.94v-6.3h1.06v6.3Z" style="fill:#fff"></path><path d="M254,363h-1.78v1.9H251.2v-6.3h2.55c1.61,0,2.54.78,2.54,2.15a2,2,0,0,1-1.3,2l1.41,2.11h-1.21Zm-.29-.94c1,0,1.53-.42,1.53-1.27s-.55-1.23-1.53-1.23h-1.49v2.5Z" style="fill:#fff"></path><path d="M263.38,364.94v-4.71l-2,4h-.7l-2-4v4.71h-1v-6.3H259l2.08,4.18,2.07-4.18h1.26v6.3Z" style="fill:#fff"></path><path d="M267.09,359.59v1.7h3.08v1h-3.08V364h3.55v.95H266v-6.3h4.5v.95Z" style="fill:#fff"></path><path d="M274.52,358.64a3.15,3.15,0,1,1,0,6.3h-2.56v-6.3ZM273,364h1.54a2.11,2.11,0,0,0,2.16-2.19,2.15,2.15,0,0,0-2.2-2.21H273Z" style="fill:#fff"></path></g><g id="freepik--Envelope--inject-6"><polygon points="182.55 240.22 315.71 239.26 319.42 329.79 181.54 328.51 182.55 240.22" style="fill:#005CFF"></polygon><polyline points="182.55 240.22 250.15 185.52 315.71 239.26" style="fill:#005CFF"></polyline><g style="opacity:0.30000000000000004"><polyline points="182.55 240.22 250.15 185.52 315.71 239.26"></polyline></g><path d="M181.54,328.51c-.17-.15,10.49-11.79,23.81-26s24.24-25.59,24.41-25.43-10.49,11.79-23.81,26S181.71,328.67,181.54,328.51Z" style="fill:#263238"></path><path d="M319.42,329.79c-.17.15-10.55-11.25-23.18-25.47s-22.74-25.87-22.57-26,10.55,11.25,23.18,25.47S319.59,329.64,319.42,329.79Z" style="fill:#263238"></path><g style="opacity:0.5"><polyline points="315.71 239.26 248.84 292.68 182.55 240.22"></polyline></g><polygon points="189.26 245.17 189.06 206.44 305.69 203.58 306.96 245.96 248.84 291.98 189.26 245.17" style="fill:#ebebeb"></polygon><path d="M250.47,278.06a29,29,0,0,1-28.89-32.28,29,29,0,0,1,57.66,6.53h0a29,29,0,0,1-28.77,25.75Zm-.08-57a28,28,0,1,0,27.85,31.17h0a28,28,0,0,0-24.68-31A28.2,28.2,0,0,0,250.39,221Z" style="fill:#005CFF"></path><polygon points="230.69 253.07 235.54 247.13 246.88 255.32 265.31 233.6 270.87 238.49 247.16 265.81 230.69 253.07" style="fill:#005CFF"></polygon></g></svg>