<svg width="48" fill="#000000" xmlns="http://www.w3.org/2000/svg" height="48" viewBox="0 0 48 48" xmlns:xlink="http://www.w3.org/1999/xlink" enable-background="new 0 0 16 16">
<path d="m39,0c4.971,0 9,4.029 9,9v30c0,4.971-4.029,9-9,9h-30c-4.971,0-9-4.029-9-9v-5.277l2.637,2.637c.963,.963 2.115,1.65 3.363,2.091v.549c0,1.659 1.344,3 3,3h30c1.659,0 3-1.341 3-3v-30c0-1.656-1.341-3-3-3h-30c-1.656,0-3,1.344-3,3v.546c-1.245,.441-2.397,1.125-3.363,2.088l-2.637,2.637v-5.271c0-4.971 4.029-9 9-9h30Zm-28.851,15.225c1.119,.462 1.851,1.56 1.851,2.772v3.003h9c1.659,0 3,1.344 3,3 0,1.659-1.341,3-3,3h-9v2.997c0,1.212-.732,2.31-1.851,2.772-1.122,.462-2.412,.204-3.27-.651l-6-6c-.585-.585-.879-1.353-.879-2.121 0-.768 .294-1.536 .879-2.121l6-6c.858-.858 2.148-1.113 3.27-.651Z"/>
</svg>
